<?xml version="1.0" encoding="UTF-8"?>
<!DOCTYPE svg PUBLIC "-//W3C//DTD SVG 1.1//EN" "http://www.w3.org/Graphics/SVG/1.1/DTD/svg11.dtd">
<!-- Creator: CorelDRAW -->
<svg xmlns="http://www.w3.org/2000/svg" xml:space="preserve" width="23.1404mm" height="38.1mm" version="1.1" style="shape-rendering:geometricPrecision; text-rendering:geometricPrecision; image-rendering:optimizeQuality; fill-rule:evenodd; clip-rule:evenodd"
viewBox="0 0 126.71 208.63"
 xmlns:xlink="http://www.w3.org/1999/xlink"
 xmlns:xodm="http://www.corel.com/coreldraw/odm/2003">
 <defs>
  <style type="text/css">
   <![CDATA[
    .fil0 {fill:#011B4E;fill-rule:nonzero}
   ]]>
  </style>
 </defs>
 <g id="Layer_x0020_1">
  <metadata id="CorelCorpID_0Corel-Layer"/>
  <path class="fil0" d="M66.08 105.6c0,15.13 -6.18,22.23 -20.07,22.23 -13.28,0 -20.07,-7.1 -20.07,-22.23l0 -59.28c0,-15.13 6.79,-22.23 20.38,-22.23 13.59,0 20.07,7.1 20.07,22.23l0 6.14 25.01 0 0 -6.14c0,-31.19 -13.59,-46.32 -45.08,-46.32 -31.49,0 -46.32,15.13 -46.32,46.32l0 59.28c0,31.49 14.82,46.32 46.01,46.32 31.8,0 45.39,-15.44 45.39,-46.32l0 -7.51 -25.32 0 0 7.51z"/>
  <path class="fil0" d="M60.63 103.03c0,-15.13 6.18,-22.23 20.07,-22.23 13.28,0 20.07,7.1 20.07,22.23l0 59.28c0,15.13 -6.79,22.23 -20.38,22.23 -13.59,0 -20.07,-7.1 -20.07,-22.23l0 -6.14 -25.01 0 0 6.14c0,31.19 13.59,46.32 45.08,46.32 31.5,0 46.32,-15.13 46.32,-46.32l0 -59.28c0,-31.49 -14.82,-46.32 -46.01,-46.32 -31.8,0 -45.39,15.44 -45.39,46.32l0 7.51 25.32 0 0 -7.51z"/>
 </g>
</svg>
