<?xml version="1.0" encoding="UTF-8"?>
<!DOCTYPE svg PUBLIC "-//W3C//DTD SVG 1.1//EN" "http://www.w3.org/Graphics/SVG/1.1/DTD/svg11.dtd">
<!-- Creator: CorelDRAW -->
<svg xmlns="http://www.w3.org/2000/svg" xml:space="preserve" width="75.4783mm" height="31.9284mm" version="1.1" style="shape-rendering:geometricPrecision; text-rendering:geometricPrecision; image-rendering:optimizeQuality; fill-rule:evenodd; clip-rule:evenodd"
viewBox="0 0 1833.64 775.66"
 xmlns:xlink="http://www.w3.org/1999/xlink"
 xmlns:xodm="http://www.corel.com/coreldraw/odm/2003">
 <defs>
  <style type="text/css">
   <![CDATA[
    .fil0 {fill:#E9EDF0;fill-rule:nonzero}
   ]]>
  </style>
 </defs>
 <g id="Layer_x0020_1">
  <metadata id="CorelCorpID_0Corel-Layer"/>
  <path class="fil0" d="M663.22 305.75c0,19.65 -8.53,28.92 -25.21,28.92 -17.42,0 -24.84,-10.01 -24.84,-28.92l0 -130.13c0,-19.28 8.53,-29.66 24.84,-29.66 16.68,0 25.21,10.75 25.21,30.03l0 29.29 31.51 0 0 -29.29c0,-40.78 -20.39,-61.17 -57.84,-61.17 -37.07,0 -56.72,20.39 -56.72,61.54l0 126.79c0,40.04 19.65,62.28 57.84,62.28 37.07,0 56.72,-20.39 56.72,-61.54l0 -41.15 -31.51 0 0 43zm84.16 57.46l0 -107.14 30.03 0c15.94,0 20.76,6.67 20.76,22.61l0 84.53 32.62 0 0 -81.93c0,-24.47 -8.53,-36.33 -25.95,-39.67l0 -1.48c15.94,-4.08 25.21,-17.42 25.21,-40.04l0 -33.74c0,-31.14 -12.23,-49.31 -46.71,-49.31l-68.59 0 0 246.17 32.63 0zm50.42 -160.16c0,18.91 -8.16,25.21 -21.5,25.21l-28.92 0 0 -81.19 28.55 0c15.57,0 21.87,7.79 21.87,22.99l0 33zm174.62 160.16l-41.89 -246.17 -44.86 0 -41.89 246.17 32.25 0 8.9 -57.84 45.23 0 9.64 57.84 32.63 0zm-65.62 -194.27l1.48 0 17.42 107.89 -36.33 0 17.42 -107.89zm128.65 194.27l24.1 -190.56 1.48 0 24.47 190.56 41.89 0 29.66 -246.17 -31.51 0 -21.13 187.22 -1.48 0 -23.73 -187.22 -37.44 0 -22.99 187.22 -1.48 0 -21.5 -187.22 -31.88 0 29.66 246.17 41.89 0zm196.86 0c36.7,0 55.98,-19.28 55.98,-60.06l0 -129.39c0,-37.44 -19.28,-56.72 -55.98,-56.72l-60.8 0 0 246.17 60.8 0zm-28.18 -30.03l0 -186.11 24.1 0c21.87,0 27.07,14.83 27.07,38.56l0 108.25c0,24.47 -5.19,39.3 -25.21,39.3l-25.95 0zm168.31 30.03l24.1 -190.56 1.48 0 24.47 190.56 41.89 0 29.66 -246.17 -31.51 0 -21.13 187.22 -1.48 0 -23.73 -187.22 -37.44 0 -22.99 187.22 -1.48 0 -21.5 -187.22 -31.88 0 29.66 246.17 41.89 0zm241.35 0l-41.89 -246.17 -44.86 0 -41.89 246.17 32.25 0 8.9 -57.84 45.23 0 9.64 57.84 32.63 0zm-65.62 -194.27l1.48 0 17.42 107.89 -36.33 0 17.42 -107.89zm174.62 194.27l0 -30.4 -60.8 0 0 -215.77 -33.37 0 0 246.17 94.17 0zm110.85 0l0 -30.4 -60.8 0 0 -215.77 -33.37 0 0 246.17 94.17 0zm-1170.42 235.47c0,19.65 -8.53,28.92 -25.21,28.92 -17.42,0 -24.84,-10.01 -24.84,-28.92l0 -130.13c0,-19.28 8.53,-29.66 24.84,-29.66 16.68,0 25.21,10.75 25.21,30.03l0 29.29 31.51 0 0 -29.29c0,-40.78 -20.39,-61.17 -57.84,-61.17 -37.07,0 -56.72,20.39 -56.72,61.54l0 126.79c0,40.04 19.65,62.28 57.84,62.28 37.07,0 56.72,-20.39 56.72,-61.54l0 -41.15 -31.51 0 0 43zm168.69 57.46l-41.89 -246.17 -44.86 0 -41.89 246.17 32.25 0 8.9 -57.84 45.23 0 9.64 57.84 32.63 0zm-65.62 -194.27l1.48 0 17.42 107.89 -36.33 0 17.42 -107.89zm149.04 96.39c34.11,0 46.71,-18.17 46.71,-49.31l0 -49.68c0,-31.14 -12.6,-49.31 -46.71,-49.31l-68.59 0 0 246.17 33.37 0 0 -97.87 35.22 0zm-35.22 -118.27l28.55 0c15.57,0 21.87,8.16 21.87,22.99l0 40.78c0,16.31 -6.3,25.58 -21.87,25.58l-28.55 0 0 -89.35zm132.72 216.14l0 -246.17 -33.37 0 0 246.17 33.37 0zm91.2 0l0 -216.14 41.89 0 0 -30.03 -116.04 0 0 30.03 41.15 0 0 216.14 33 0zm156.08 0l-41.89 -246.17 -44.86 0 -41.89 246.17 32.25 0 8.9 -57.84 45.23 0 9.64 57.84 32.63 0zm-65.62 -194.27l1.48 0 17.42 107.89 -36.33 0 17.42 -107.89zm174.62 194.27l0 -30.4 -60.8 0 0 -215.77 -33.37 0 0 246.17 94.17 0z"/>
  <path class="fil0" d="M245.67 392.61c0,56.24 -22.96,82.65 -74.62,82.65 -49.36,0 -74.62,-26.4 -74.62,-82.65l0 -220.42c0,-56.25 25.26,-82.65 75.77,-82.65 50.51,0 74.62,26.41 74.62,82.65l0 22.84 92.99 0 0 -22.84c0,-115.95 -50.51,-172.2 -167.61,-172.2 -117.1,0 -172.2,56.25 -172.2,172.2l0 220.42c0,117.1 55.1,172.2 171.05,172.2 118.24,0 168.76,-57.4 168.76,-172.2l0 -27.91 -94.14 0 0 27.91z"/>
  <path class="fil0" d="M225.43 383.04c0,-56.24 22.96,-82.65 74.62,-82.65 49.36,0 74.62,26.4 74.62,82.65l0 220.42c0,56.25 -25.26,82.65 -75.77,82.65 -50.51,0 -74.62,-26.41 -74.62,-82.65l0 -22.84 -92.99 0 0 22.84c0,115.95 50.51,172.2 167.61,172.2 117.1,0 172.2,-56.25 172.2,-172.2l0 -220.42c0,-117.1 -55.1,-172.2 -171.05,-172.2 -118.24,0 -168.75,57.4 -168.75,172.2l0 27.91 94.14 0 0 -27.91z"/>
 </g>
</svg>
